<svg width="22" height="18" viewBox="0 0 22 18" fill="none" xmlns="http://www.w3.org/2000/svg">
<path d="M19.7992 17.5993H2.19991C0.986662 17.5993 0 16.6127 0 15.3994V2.19991C0 0.986662 0.986662 0 2.19991 0H19.7992C21.0125 0 21.9991 0.986662 21.9991 2.19991V15.3994C21.9991 16.6127 21.0125 17.5993 19.7992 17.5993ZM2.19991 1.09996C1.59384 1.09996 1.09996 1.59384 1.09996 2.19991V15.3994C1.09996 16.0055 1.59384 16.4994 2.19991 16.4994H19.7992C20.4053 16.4994 20.8992 16.0055 20.8992 15.3994V2.19991C20.8992 1.59384 20.4053 1.09996 19.7992 1.09996H2.19991Z" fill="white"/>
<path d="M5.49984 7.69969C4.28659 7.69969 3.29993 6.71303 3.29993 5.49978C3.29993 4.28653 4.28659 3.29987 5.49984 3.29987C6.71309 3.29987 7.69976 4.28653 7.69976 5.49978C7.69976 6.71303 6.71309 7.69969 5.49984 7.69969ZM5.49984 4.39982C4.89376 4.39982 4.39988 4.8937 4.39988 5.49978C4.39988 6.10586 4.89376 6.59974 5.49984 6.59974C6.10592 6.59974 6.5998 6.10586 6.5998 5.49978C6.5998 4.8937 6.10592 4.39982 5.49984 4.39982Z" fill="white"/>
<path d="M0.627036 16.4224C0.486241 16.4224 0.345447 16.3685 0.237651 16.2618C0.0231593 16.0473 0.0231593 15.6986 0.237651 15.4841L5.43275 10.289C6.05532 9.66643 7.14318 9.66643 7.76576 10.289L9.31229 11.8355L13.5933 6.69874C13.9046 6.32586 14.3622 6.10917 14.8495 6.10477H14.8616C15.3434 6.10477 15.7998 6.31376 16.1144 6.68004L21.8672 13.392C22.0652 13.6219 22.0388 13.9695 21.8078 14.1675C21.5779 14.3654 21.2314 14.3401 21.0323 14.1081L15.2796 7.39612C15.1729 7.27292 15.0255 7.20472 14.8616 7.20472C14.7472 7.19482 14.5459 7.27402 14.4392 7.40272L9.77208 13.0026C9.67308 13.1214 9.52899 13.1929 9.37389 13.1995C9.2177 13.2105 9.0692 13.1489 8.96031 13.0389L6.98809 11.0667C6.78019 10.8599 6.41831 10.8599 6.21042 11.0667L1.01532 16.2618C0.908624 16.3685 0.76783 16.4224 0.627036 16.4224Z" fill="white"/>
</svg>
